<svg width="50" height="50" viewBox="0 0 24 24" xmlns="http://www.w3.org/2000/svg" fill="none">
  <path fill="currentColor" d="M19.43 12.98c.04-.32.07-.65.07-.98s-.03-.66-.07-.98l2.11-1.65a.5.5 0 00.11-.64l-2-3.46a.5.5 0 00-.61-.22l-2.49 1a7.948 7.948 0 00-1.7-.98L14 2.5a.5.5 0 00-.5-.5h-3a.5.5 0 00-.5.5l-.24 2.57a7.948 7.948 0 00-1.7.98l-2.49-1a.5.5 0 00-.61.22l-2 3.46a.5.5 0 00.11.64l2.11 1.65c-.04.32-.07.65-.07.98s.03.66.07.98l-2.11 1.65a.5.5 0 00-.11.64l2 3.46a.5.5 0 00.61.22l2.49-1c.52.4 1.1.73 1.7.98l.24 2.57a.5.5 0 00.5.5h3a.5.5 0 00.5-.5l.24-2.57c.6-.25 1.18-.58 1.7-.98l2.49 1a.5.5 0 00.61-.22l2-3.46a.5.5 0 00-.11-.64l-2.11-1.65zM12 15.5a3.5 3.5 0 110-7 3.5 3.5 0 010 7z"></path>
</svg>
